<svg version="1.1" viewBox="0 0 16 16" xmlns="http://www.w3.org/2000/svg">
    <g fill="#222">
        <path d="m1.199219 0.0195312c-0.144531 0.0039063-0.574219 0.0429688-0.886719 0.3203128-0.2460938 0.214844-0.3203125 0.574218-0.3398438 0.808594v10.1875c0.0078126 0.128906 0.0039063 0.574218 0.3203128 0.746093 0.320312 0.167969 0.660156-0.082031 0.726562-0.125l10.484375-10.488281s0.472656-0.4375 0.296875-0.976562c-0.167969-0.5312505-0.738281-0.4726568-0.738281-0.4726568l0.003906-0.0039062h-9.816406zm1.914062 1.0195308h2.996094c0.390625-0.003906 0.707031 0.3125 0.707031 0.703126v2.996093c0 0.390625-0.316406 0.707031-0.707031 0.707031s-0.703125-0.316406-0.703125-0.707031v-1.292969l-3.207031 3.203126c-0.273438 0.273437-0.722657 0.273437-0.996094 0-0.273437-0.273438-0.273437-0.722657 0-1l3.203125-3.199219h-1.292969c-0.386719 0-0.707031-0.316407-0.707031-0.707031 0-0.390626 0.320312-0.707032 0.707031-0.703126z"/>
        <path d="m9.042969 10.132812v4.765626l-1.125-1.125h4.765625c0.621094 0 1.121094 0.503906 1.121094 1.125 0 0.617187-0.5 1.121093-1.121094 1.121093h-4.765625c-0.621094 0-1.121094-0.503906-1.121094-1.121093v-4.765626c0-0.621093 0.5-1.125 1.121094-1.125 0.621093 0 1.125 0.503907 1.125 1.125z"/>
        <path d="m7.796875 13.605469 3.535156-3.535157c0.386719-0.390624 1.023438-0.390624 1.414063 0 0.386718 0.390626 0.386718 1.023438 0 1.414063l-3.535156 3.535156c-0.390626 0.390625-1.027344 0.390625-1.414063 0-0.390625-0.390625-0.390625-1.023437 0-1.414062z"/>
        <path d="m15.984375 7.96875c0 0.628906-0.507813 1.140625-1.140625 1.140625-0.628906 0-1.140625-0.511719-1.140625-1.140625s0.511719-1.140625 1.140625-1.140625c0.632812 0 1.140625 0.511719 1.140625 1.140625z"/>
    </g>
</svg>
