<?xml version="1.0" encoding="UTF-8"?>
<svg height="16px" viewBox="0 0 16 16" width="16px" xmlns="http://www.w3.org/2000/svg" xmlns:xlink="http://www.w3.org/1999/xlink">
    <clipPath id="a">
        <rect height="152" width="192"/>
    </clipPath>
    <clipPath id="b">
        <rect height="152" width="192"/>
    </clipPath>
    <clipPath id="c">
        <path d="m 6 2 h 10 v 10 h -10 z m 0 0"/>
    </clipPath>
    <clipPath id="d">
        <path d="m 15.878906 2.179688 v 8.851562 h -9.871094 v -2.425781 c 0.207032 0.039062 0.414063 0.078125 0.621094 0.117187 c -0.003906 0.105469 0.097656 0.214844 0.320313 0.234375 c 0.109375 0.011719 0.222656 0.019531 0.335937 0.03125 c -0.015625 0.328125 -0.03125 0.652344 -0.042968 0.980469 c -0.007813 0.203125 -0.011719 0.40625 -0.019532 0.609375 c -0.007812 0.371094 0.429688 0.378906 0.4375 0.007813 c 0.003906 -0.203126 0.011719 -0.40625 0.019532 -0.605469 c 0.007812 -0.25 0.019531 -0.496094 0.03125 -0.746094 c 0.023437 -0.003906 0.054687 -0.011719 0.089843 -0.023437 c 0.128907 0.039062 0.191407 0.058593 0.21875 0.050781 c 0.007813 0.003906 0.015625 0.007812 0.019531 0.007812 c 0.171876 0.019531 0.257813 0.023438 0.308594 0.003907 c 0 0.132812 0.007813 0.328124 0.085938 0.335937 c 0.046875 0.003906 0.089844 -0.003906 0.136718 -0.015625 c 0.046876 -0.003906 0.113282 -0.015625 0.195313 -0.03125 c 0.035156 0.007812 0.058594 0 0.070313 -0.015625 c 0.003906 0 0.007812 -0.003906 0.015624 -0.003906 c 0.003907 0 0.003907 0 0.007813 -0.003907 c 0.019531 -0.015624 0.007813 -0.0625 0.011719 -0.085937 c 0.007812 -0.042969 0.011718 -0.085937 0.015625 -0.128906 c 0.007812 -0.039063 0.011719 -0.078125 0.019531 -0.117188 c 0.03125 0 0.0625 0 0.070312 -0.007812 h 0.003907 c 0.015625 -0.039063 0.027343 -0.070313 0.039062 -0.101563 c 0.015625 0.238282 0.03125 0.480469 0.035157 0.722656 c 0.003906 0.066407 0 0.109376 0.003906 0.140626 c -0.003906 0.019531 -0.011719 0.035156 -0.007813 0.046874 v 0.003907 l 0.003907 0.003906 h 0.003906 c 0 0.003906 0.003906 0 0.003906 0 c 0.011719 0.003906 0.023438 0 0.03125 0 c 0.03125 0.015625 0.085938 0.019531 0.179688 0.019531 c 0.109374 0.089844 0.308593 0.039063 0.363281 -0.199218 c 0 -0.007813 0.003906 -0.015626 0.003906 -0.023438 c 0.015625 0.003906 0.03125 0.007812 0.042969 0.011719 c 0.011718 -0.03125 0.023437 -0.058594 0.027344 -0.085938 c 0.007812 -0.042969 0.003906 -0.085937 0.003906 -0.125 c 0.003906 -0.03125 0.003906 -0.066406 0.003906 -0.097656 c 0.007812 -0.023437 0.015625 -0.042969 0.023438 -0.066406 c 0 -0.011719 0.003906 -0.019531 0.007812 -0.03125 c 0.007812 0.074219 0.011719 0.144531 0.019531 0.214843 c 0.003907 0.0625 0.007813 0.125 0.015625 0.1875 c 0 0.035157 -0.03125 0.09375 0.007813 0.105469 h 0.003906 v 0.003907 v 0.019531 c 0.019531 0 0.042969 -0.003907 0.066406 -0.003907 c 0.117188 0.023438 0.246094 0.011719 0.371094 0.023438 c 0 -0.027344 0 -0.050781 0 -0.074219 c 0.011719 -0.011719 0.007813 -0.027343 0 -0.050781 c 0.003906 -0.1875 -0.003906 -0.375 0.003906 -0.5625 c 0 -0.078125 0 -0.152344 0 -0.226562 c 0.105469 0.109374 0.222657 0.226562 0.246094 0.039062 c 0.011719 -0.058594 0.007813 -0.035156 0.007813 -0.074219 c 0.003906 -0.042969 0 -0.085937 0.003906 -0.128906 c 0 -0.015625 0 -0.035156 0 -0.054687 c 0.003906 -0.003907 0.003906 -0.003907 0.003906 -0.007813 c 0 0 0 0 0 -0.003906 v 0.003906 l 0.003906 0.003906 h 0.003906 v -0.003906 c 0.003907 0 0.003907 -0.003906 0.003907 -0.003906 v -0.007813 v -0.003906 c 0 -0.003906 0 -0.003906 0 -0.003906 c 0 -0.003906 0 -0.007813 0 -0.007813 v -0.003906 c 0 -0.003906 0 -0.003906 0 -0.007813 c 0 0 0 -0.003906 0 -0.007812 c 0 0 0 -0.003906 0 -0.007812 c 0 -0.003907 0 -0.003907 0 -0.007813 s 0 -0.003906 0 -0.007813 c 0 0 0 -0.003906 0.003906 -0.003906 c 0 -0.003906 -0.003906 -0.007812 0 -0.007812 c 0 -0.003906 0 -0.007813 0 -0.007813 c 0 -0.003906 0 -0.007812 0 -0.011719 v -0.035156 v -0.003906 s 0 -0.003906 0 -0.007812 c 0 0 0 -0.003907 0 -0.007813 s 0 -0.011719 0 -0.015625 c 0 -0.007812 0 -0.011719 0.003906 -0.019531 v -0.003907 c 0.003907 -0.035156 0.007813 -0.070312 0.015625 -0.101562 c 0.007813 -0.09375 0.003906 -0.1875 0.011719 -0.28125 c 0.003906 -0.121094 0.015625 -0.242188 0.03125 -0.363281 c 0.015625 -0.117188 0.027344 -0.234375 0.039063 -0.351563 c 0.023437 -0.199218 -0.089844 -0.304687 -0.203126 -0.308594 c -0.058593 0 -0.121093 0.027344 -0.164062 0.082032 c -0.019531 -0.011719 -0.042969 -0.015625 -0.070312 -0.015625 c -0.035157 -0.003907 -0.074219 0.003906 -0.109376 0.023437 c -0.003906 -0.109375 0 -0.21875 -0.003906 -0.328125 c 0.003906 -0.011719 0.003906 -0.023437 0.003906 -0.03125 v -0.003906 h -0.003906 v -0.003906 l -0.003906 -0.003907 c 0 -0.015624 -0.003906 -0.035156 -0.003906 -0.050781 c -0.132813 0.011719 -0.269532 0.003907 -0.398438 0.03125 c -0.011718 0 -0.023437 0 -0.035156 0 v 0.011719 h -0.003906 h -0.003906 v 0.003906 h -0.003907 c -0.007812 0.015625 0.007813 0.050782 0.007813 0.070313 c -0.007813 0.1875 -0.027344 0.371093 -0.050782 0.554687 c -0.007812 0 -0.015624 0 -0.023437 0 c -0.03125 -0.003906 -0.082031 0.003906 -0.183594 0.023438 c 0 -0.007813 0 -0.015625 0 -0.023438 c -0.019531 -0.359375 -0.425781 -0.355468 -0.4375 -0.023437 c -0.011719 0 -0.027343 -0.003907 -0.039062 -0.003907 c 0 -0.007812 0 -0.019531 0 -0.027343 c 0.078125 -0.242188 0.023437 -0.246094 -0.175781 -0.289063 c -0.179688 -0.023437 -0.359376 -0.042968 -0.539063 -0.058594 c 0 -0.074218 0.003906 -0.144531 0 -0.21875 c 0 -0.015624 0.011719 -0.039062 0.011719 -0.050781 v -0.003906 s -0.003906 -0.003906 -0.003906 -0.003906 v -0.003907 h -0.003907 v -0.003906 h -0.003906 c -0.070313 -0.011718 -0.144531 -0.019531 -0.21875 -0.019531 s -0.144531 0 -0.21875 0.003906 h -0.003906 v 0.003907 h -0.003907 c 0 0.007812 0.007813 0.019531 0.003907 0.027343 v 0.015625 v 0.003906 v 0.015626 c 0 0.0625 0 0.128906 -0.003907 0.191406 c -0.0625 -0.003906 -0.128906 -0.011719 -0.195312 -0.019532 c 0.289062 -0.09375 0.226562 -0.394531 -0.117188 -0.40625 c -0.023437 0 -0.046874 0 -0.074218 0.003907 c -0.195313 0.015625 -0.394532 0.019531 -0.589844 0.023437 c -0.199219 0.007813 -0.394531 0.011719 -0.59375 0.011719 c -0.050781 0 -0.097656 0 -0.148438 0 v -4.554687 z m 0 0"/>
    </clipPath>
    <clipPath id="e">
        <rect height="152" width="192"/>
    </clipPath>
    <g clip-path="url(#a)" transform="matrix(1 0 0 1 -168 -16)">
        <path d="m 88.392776 238.496954 l -0.011718 -4.777344 h -26.363282 v -12.738281 h 26.363282 l 0.015625 -9.554688 l 7.601562 7.304688 c 4.183594 4.019531 7.816406 7.691406 8.078125 8.15625 c 0.445313 0.800781 -0.011719 1.324219 -7.601562 8.617187 l -8.074219 7.765625 z m 0 0" fill-rule="evenodd" stroke="#000000" stroke-width="0.383954" transform="matrix(-1 0 0 1 139.853714 -140.258673)"/>
    </g>
    <g clip-path="url(#b)" transform="matrix(1 0 0 1 -168 -16)">
        <path d="m 51.402344 95.207031 l 0.011718 -4.777343 h 26.363282 v -12.738282 h -26.363282 l -0.015624 -9.554687 l -7.605469 7.304687 c -4.179688 4.019532 -7.8125 7.691406 -8.074219 8.160156 c -0.445312 0.800782 0.011719 1.320313 7.597656 8.617188 l 8.078125 7.765625 z m 0 0" fill="#241f31" fill-rule="evenodd"/>
    </g>
    <g clip-path="url(#c)">
        <g clip-path="url(#d)">
            <path d="m 11.175781 11.03125 c -0.335937 0.007812 -0.664062 -0.214844 -0.664062 -0.554688 v -1.65625 h -3.21875 c -0.535157 0 -0.980469 -0.3125 -1.136719 -0.582031 c -0.15625 -0.273437 -0.148438 -0.527343 -0.148438 -0.527343 v -2.210938 s -0.007812 -0.253906 0.148438 -0.527344 c 0.15625 -0.269531 0.601562 -0.578125 1.136719 -0.578125 h 3.21875 v -1.660156 c 0 -0.339844 0.328125 -0.5625 0.664062 -0.554687 c 0.152344 0.003906 0.308594 0.054687 0.433594 0.164062 l 3.863281 3.316406 c 0.015625 0.015625 0.03125 0.03125 0.046875 0.046875 c 0.242188 0.261719 0.359375 0.582031 0.359375 0.898438 c 0 0.316406 -0.117187 0.636719 -0.359375 0.898437 c -0.015625 0.015625 -0.03125 0.03125 -0.046875 0.046875 l -3.863281 3.320313 c -0.125 0.105468 -0.28125 0.160156 -0.433594 0.160156 z m 0.585938 -1.660156 c 0.945312 -0.886719 1.78125 -1.660156 2.75 -2.5625 c 0.078125 -0.085938 0.113281 -0.144532 0.113281 -0.203125 c 0 -0.058594 -0.035156 -0.117188 -0.113281 -0.203125 c -0.96875 -0.902344 -1.804688 -1.675782 -2.75 -2.5625 l 0.035156 1.105468 v 0.554688 h -4.503906 v 2.210938 h 4.503906 v 0.554687 z m 0 0"/>
        </g>
    </g>
    <path d="m 4.6875 13.867188 c 0.328125 0.007812 0.648438 -0.210938 0.648438 -0.546876 v -1.632812 h 3.152343 c 0.523438 0 0.960938 -0.308594 1.113281 -0.574219 c 0.152344 -0.269531 0.148438 -0.519531 0.148438 -0.519531 v -2.179688 s 0.003906 -0.246093 -0.148438 -0.515624 c -0.152343 -0.265626 -0.589843 -0.574219 -1.113281 -0.574219 h -3.152343 v -1.632813 c 0 -0.335937 -0.320313 -0.554687 -0.648438 -0.546875 c -0.152344 0.003907 -0.304688 0.054688 -0.425781 0.160157 l -3.78125 3.269531 c -0.019531 0.015625 -0.035157 0.03125 -0.050781 0.046875 c -0.234376 0.257812 -0.3476568 0.570312 -0.3476568 0.882812 s 0.1132808 0.628906 0.3476568 0.886719 c 0.015624 0.015625 0.03125 0.03125 0.050781 0.046875 l 3.78125 3.269531 c 0.121093 0.105469 0.273437 0.15625 0.425781 0.160157 z m -0.578125 -1.636719 c -0.925781 -0.871094 -1.742187 -1.636719 -2.691406 -2.523438 c -0.074219 -0.085937 -0.109375 -0.144531 -0.113281 -0.203125 c 0.003906 -0.054687 0.039062 -0.117187 0.113281 -0.199218 c 0.949219 -0.890626 1.765625 -1.652344 2.691406 -2.523438 l -0.035156 1.089844 v 0.542968 h 4.414062 v 2.179688 h -4.414062 v 0.546875 z m 0 0"/>
    <g clip-path="url(#e)" transform="matrix(1 0 0 1 -168 -16)">
        <path d="m 172.175781 27.550781 v -0.890625 h 4.910157 v -2.371094 h -4.910157 v -1.777343 l -1.417969 1.359375 c -0.777343 0.746094 -1.453124 1.429687 -1.503906 1.519531 c -0.082031 0.148437 0.003906 0.242187 1.417969 1.601563 l 1.5 1.445312 z m 0 0" fill-rule="evenodd"/>
    </g>
</svg>
