<svg version="1.1" viewBox="0 0 128 128" xmlns="http://www.w3.org/2000/svg">
    <linearGradient id="a" x1="88.595886" x2="536.59589" y1="-449.39401" y2="-449.39401" gradientTransform="matrix(.232143 0 0 .328947 -8.63125 263.68558)" gradientUnits="userSpaceOnUse">
        <stop stop-color="#241f31" offset="0"/>
        <stop stop-color="#77767b" offset=".0384615"/>
        <stop stop-color="#241f31" offset=".0768555"/>
        <stop stop-color="#241f31" offset=".923077"/>
        <stop stop-color="#77767b" offset=".961538"/>
        <stop stop-color="#241f31" offset="1"/>
    </linearGradient>
    <linearGradient id="b" x1="21.013998" x2="44.733017" y1="20.917068" y2="45.125977" gradientUnits="userSpaceOnUse">
        <stop stop-color="#3584e4" offset="0"/>
        <stop stop-color="#1c71d8" offset="1"/>
    </linearGradient>
    <linearGradient id="c" x1="96.738518" x2="56.644714" y1="93.195984" y2="53.924637" gradientUnits="userSpaceOnUse">
        <stop stop-color="#5e5c64" offset="0"/>
        <stop stop-color="#3d3c42" offset="1"/>
    </linearGradient>
    <path d="m19.9375 15.859375h88c4.417969 0 8 3.582031 8 8v84c0 4.417969-3.582031 8-8 8h-88c-4.421875 0-8-3.582031-8-8v-84c0-4.417969 3.578125-8 8-8z" fill="url(#a)"/>
    <path d="m19.9375 11.859375h88c4.417969 0 8 3.582031 8 8v84c0 4.417969-3.582031 8-8 8h-88c-4.421875 0-8-3.582031-8-8v-84c0-4.417969 3.578125-8 8-8z" fill="url(#b)"/>
    <g fill="#1a5fb4">
        <path d="m39.453125 28.402344-19.824219 19.6875-2.039062 1.84375v6.011718l0.011718-0.003906c0.066407 0.746094 0.390626 1.445313 0.917969 1.972656 1.242188 1.242188 3.253907 1.242188 4.492188 0l23.289062-23.289062c1.238281-1.238281 3.464844-4.757812 1.042969-7.175781-2.417969-2.421875-5.003906-1.667969-6.378906-0.292969z"/>
        <path d="m46.296875 46.09375c0.59375 0.59375 1.402344 0.929688 2.242187 0.929688 1.757813 0 3.179688-1.421876 3.179688-3.175782v-17.34375c0-1.753906-1.421875-3.175781-3.175781-3.175781-1.757813 0-3.179688 1.421875-3.179688 3.175781v17.34375c0 0.839844 0.335938 1.648438 0.933594 2.246094z"/>
        <path d="m48.105469 22.4375h-17.339844c-0.828125 0-2.214844 0.003906-2.214844 0.003906l-0.960937-0.015625 0.003906 3.5c-0.003906 0.046875-0.003906 0.097657-0.003906 0.144531v0.046876c0.011718 0.824218 0.34375 1.613281 0.925781 2.195312 0.597656 0.597656 1.40625 0.933594 2.246094 0.933594h17.34375c1.757812 0 3.179687-1.75 3.179687-3.507813 0-1.753906-1.421875-3.304687-3.175781-3.300781z"/>
    </g>
    <path d="m48.109375 19.0625h-17.34375c-1.753906 0-3.175781 1.421875-3.175781 3.175781 0 0.839844 0.332031 1.648438 0.929687 2.246094 0.59375 0.59375 1.402344 0.929687 2.242188 0.929687h9.9375l-22.179688 22.179688c-1.238281 1.238281-1.238281 3.25 0 4.492188 1.242188 1.238281 3.253907 1.238281 4.492188-0.003907l22.351562-22.351562v10.285156c0 0.839844 0.335938 1.648437 0.933594 2.242187 0.59375 0.597657 1.402344 0.933594 2.242187 0.933594 1.757813 0 3.179688-1.421875 3.179688-3.175781v-17.34375c-0.003906-0.949219-0.425781-1.84375-1.15625-2.445313-0.605469-0.738281-1.503906-1.164062-2.453125-1.164062z" fill="#99c1f1"/>
    <path d="m11.90625 103.40625 0.003906-14.230469 39.089844-38.3125 39.371094-39.015625 16.675781 0.011719s9.019531-0.828125 9.007813 8.570313l-0.089844 82.171874s1.058594 9.546876-9.183594 9.519532l-85.640625-0.253906s-9.402344 0.949218-9.234375-8.460938z" fill="url(#c)"/>
    <path d="m90.066406 57.515625c-1.871094 0.3125-3.335937 1.890625-4.371094 2.929687l-28.640624 28.636719c-2.121094 2.125-2.121094 5.566407 0 7.6875 2.121093 2.125 5.566406 2.125 7.691406 0.003907l28.640625-28.640626c1.082031-1.085937 1.613281-2.515624 1.589843-3.9375h0.003907v-5.269531c-1.382813-1.394531-3.042969-1.722656-4.914063-1.410156z" fill="#3d3846"/>
    <path d="m52.066406 63.59375c-3 0-5.4375 2.4375-5.4375 5.4375v29.6875c0.007813 1.625 0.402344 3.386719 1.546875 4.535156 1.148438 1.148438 3.007813 1.644532 4.636719 1.644532l29.683594-0.003907c3 0.003907 5.429687-2.425781 5.4375-5.425781v-0.011719-5.257812l-1.683594 1.328125c-1.011719-0.964844-2.355469-1.503906-3.75-1.503906h-24.996094v-24.992188c0-1.441406-0.570312-2.824219-1.59375-3.84375-1.015625-1.019531-2.398437-1.589844-3.84375-1.59375z" fill="#3d3846"/>
    <path d="m89.539062 51.816406c-1.441406 0-2.824218 0.574219-3.84375 1.59375l-28.191406 28.191406 0.003906-17.601562c0-1.441406-0.574218-2.824219-1.59375-3.84375-1.019531-1.023438-2.402343-1.59375-3.84375-1.597656-3.003906 0-5.441406 2.4375-5.441406 5.441406v29.6875c0.003906 1.621094 0.523438 3.351562 1.671875 4.5 1.144531 1.148438 2.882813 1.671875 4.507813 1.675781h29.6875c3.003906 0 5.4375-2.433593 5.4375-5.4375 0-1.441406-0.574219-2.824219-1.589844-3.84375-1.019531-1.019531-2.402344-1.59375-3.847656-1.59375h-17l27.890625-27.890625c2.121093-2.125 2.121093-5.566406 0-7.691406-1.019531-1.019531-2.40625-1.589844-3.847657-1.589844z" fill="#fff"/>
    <path d="m96.585938 44.074219v6.324219c-0.015626 0.171874-0.023438 0.339843-0.023438 0.511718 0 3.03125 2.453125 5.484375 5.484375 5.484375s5.484375-2.453125 5.484375-5.484375c0-0.113281-0.003906-0.226562-0.011719-0.335937h0.03125v-6.5l-2.695312 2.125c-0.847657-0.503907-1.820313-0.773438-2.808594-0.773438-0.980469 0-1.941406 0.261719-2.785156 0.761719z" fill="#3d3846"/>
    <path d="m107.53125 44.707031c0 3.027344-2.453125 5.484375-5.484375 5.484375s-5.484375-2.457031-5.484375-5.484375c0-3.03125 2.453125-5.488281 5.484375-5.488281s5.484375 2.457031 5.484375 5.488281z" fill="#fff"/>
    <path d="m17.097656 84.140625 67.625-66.6875s-17.613281 20.296875-33.171875 35.855469c-15.554687 15.558594-34.453125 30.832031-34.453125 30.832031z" fill="#222"/>
</svg>
