<?xml version="1.0" encoding="UTF-8"?>
<svg height="128px" viewBox="0 0 128 128" width="128px" xmlns="http://www.w3.org/2000/svg" xmlns:xlink="http://www.w3.org/1999/xlink">
    <linearGradient id="a" gradientUnits="userSpaceOnUse" x1="12.84151" x2="116.841507" y1="66" y2="66">
        <stop offset="0" stop-color="#26a269"/>
        <stop offset="0.0774591" stop-color="#33d17a"/>
        <stop offset="0.151226" stop-color="#26a269"/>
        <stop offset="0.871323" stop-color="#26a269"/>
        <stop offset="0.922937" stop-color="#33d17a"/>
        <stop offset="1" stop-color="#26a269"/>
    </linearGradient>
    <linearGradient id="b" gradientUnits="userSpaceOnUse" x1="12.563275" x2="116.563278" y1="62" y2="62">
        <stop offset="0.497432" stop-color="#57e389"/>
        <stop offset="0.704996" stop-color="#33d17a"/>
        <stop offset="1" stop-color="#2ec27e"/>
    </linearGradient>
    <clipPath id="c">
        <path d="m 53 32 h 54 v 48 h -54 z m 0 0"/>
    </clipPath>
    <clipPath id="d">
        <path d="m 106.542969 32.386719 v 47.550781 h -53.027344 v -13.035156 c 1.113281 0.203125 2.222656 0.410156 3.332031 0.625 c -0.019531 0.566406 0.535156 1.164062 1.726563 1.273437 c 0.601562 0.050781 1.199219 0.105469 1.800781 0.160157 c -0.074219 1.753906 -0.152344 3.503906 -0.214844 5.257812 c -0.039062 1.089844 -0.078125 2.183594 -0.105468 3.273438 c -0.046876 1.996093 2.296874 2.035156 2.34375 0.042968 c 0.027343 -1.085937 0.0625 -2.167968 0.101562 -3.25 c 0.050781 -1.335937 0.105469 -2.667968 0.164062 -4 c 0.132813 -0.03125 0.296876 -0.074218 0.5 -0.128906 c 0.675782 0.207031 1.007813 0.308594 1.171876 0.273438 c 0.03125 0.019531 0.070312 0.035156 0.105468 0.039062 c 0.910156 0.109375 1.371094 0.128906 1.652344 0.023438 c -0.007812 0.703124 0.03125 1.75 0.464844 1.792968 c 0.246094 0.023438 0.484375 -0.007812 0.722656 -0.066406 c 0.265625 -0.027344 0.609375 -0.085938 1.046875 -0.175781 c 0.203125 0.03125 0.316406 0 0.378906 -0.082031 c 0.03125 -0.003907 0.058594 -0.015626 0.085938 -0.023438 c 0.019531 -0.003906 0.035156 -0.003906 0.046875 -0.019531 c 0.105468 -0.082031 0.039062 -0.328125 0.0625 -0.472657 c 0.039062 -0.226562 0.0625 -0.445312 0.09375 -0.675781 c 0.027344 -0.210937 0.058594 -0.425781 0.085937 -0.640625 c 0.1875 0.007813 0.347657 0.003906 0.390625 -0.027344 h 0.003906 l 0.003907 -0.003906 v -0.003906 l 0.003906 -0.003906 c 0.082031 -0.199219 0.152344 -0.382813 0.214844 -0.550782 c 0.09375 1.296876 0.175781 2.589844 0.199219 3.890626 c 0.007812 0.34375 -0.011719 0.589843 0.015624 0.761718 c -0.027343 0.089844 -0.0625 0.191406 -0.050781 0.246094 v 0.003906 l 0.003907 0.007813 v 0.003906 l 0.007812 0.011719 l 0.007812 0.003906 l 0.003907 0.007812 l 0.007812 0.003907 h 0.007813 l 0.007812 0.007812 h 0.019532 h 0.175781 c 0.164062 0.078125 0.453125 0.097657 0.960937 0.09375 c 0.59375 0.492188 1.664063 0.207031 1.949219 -1.0625 c 0.007813 -0.042969 0.015625 -0.085937 0.023437 -0.128906 c 0.078126 0.015625 0.15625 0.03125 0.230469 0.050781 c 0.050781 -0.15625 0.117188 -0.304687 0.148438 -0.460937 c 0.050781 -0.21875 0.015625 -0.449219 0.023437 -0.675781 c 0.003906 -0.167969 0.011719 -0.335938 0.019532 -0.503907 c 0.039062 -0.125 0.070312 -0.246093 0.113281 -0.371093 c 0.015625 -0.054688 0.035156 -0.101563 0.050781 -0.15625 c 0.03125 0.382812 0.066406 0.761718 0.097656 1.144531 c 0.03125 0.335937 0.054688 0.667969 0.082032 1.003906 c 0.015624 0.191406 -0.164063 0.503906 0.046874 0.574219 l 0.003907 0.007812 h 0.011719 l 0.003906 0.007813 h 0.007812 c 0 0.039062 -0.003906 0.074219 -0.007812 0.113281 c 0.117187 -0.015625 0.238281 -0.019531 0.359375 -0.027344 c 0.640625 0.117188 1.328125 0.058594 1.984375 0.117188 c 0.007812 -0.128906 0.011718 -0.261719 0.011718 -0.394532 c 0.070313 -0.050781 0.046876 -0.148437 0.007813 -0.257812 c 0.015625 -1.007812 -0.019531 -2.023438 0.015625 -3.03125 c 0.003906 -0.410156 0 -0.816406 0.003906 -1.222656 c 0.5625 0.589844 1.179688 1.214844 1.324219 0.207031 c 0.046875 -0.308594 0.042969 -0.183594 0.042969 -0.382813 c 0 -0.226562 0 -0.460937 0.007812 -0.691406 c 0.003906 -0.101562 0.007813 -0.199218 0.011719 -0.300781 c 0.003906 -0.015625 0.007813 -0.03125 0.011719 -0.046875 c 0 0 0 -0.003906 0 -0.007812 c 0 0.003906 0 0.007812 0.003906 0.007812 v 0.007812 h 0.003906 v 0.003907 l 0.007813 0.007812 h 0.003906 v 0.003907 h 0.003906 h 0.003907 h 0.007812 h 0.003906 l 0.003906 -0.003907 h 0.003907 v -0.003906 h 0.003906 v -0.003906 c 0.003906 -0.011719 0.011719 -0.023438 0.011719 -0.035157 v -0.039062 c 0 -0.003906 0 -0.011719 0 -0.019531 c 0 -0.007813 0 -0.015625 0 -0.027344 c 0 -0.007813 0 -0.023437 0 -0.03125 s 0 -0.015625 0 -0.027344 c 0.003906 -0.011719 0.007812 -0.023437 0.007812 -0.035156 s 0 -0.027344 0 -0.039063 c 0 -0.015624 0 -0.03125 0 -0.046874 c 0 -0.011719 0 -0.027344 0 -0.042969 c 0 -0.011719 0 -0.019531 0 -0.03125 c 0.003906 -0.015625 0.003906 -0.027344 0.003906 -0.042969 c 0 -0.011719 0 -0.023438 0 -0.035156 c 0 -0.015625 0.003907 -0.027344 0.003907 -0.042969 c 0.003906 -0.011719 0.003906 -0.03125 0.003906 -0.046875 v -0.191406 c 0 -0.007813 0 -0.019532 0 -0.03125 c 0 -0.007813 0 -0.023438 0 -0.03125 c 0 -0.015625 0 -0.035156 0 -0.050782 c 0 -0.03125 0.003906 -0.058593 0.003906 -0.089843 c 0.003907 -0.027344 0.007813 -0.058594 0.011719 -0.089844 c 0.003906 -0.011719 0 -0.023437 0 -0.03125 v -0.007813 c 0.027344 -0.179687 0.058594 -0.363281 0.085938 -0.542968 c 0.050781 -0.5 0.03125 -1 0.0625 -1.5 c 0.03125 -0.652344 0.082031 -1.308594 0.167968 -1.960938 c 0.082032 -0.628906 0.15625 -1.257812 0.222656 -1.890625 c 0.109376 -1.054687 -0.484374 -1.632812 -1.105468 -1.640625 c -0.3125 -0.007812 -0.632813 0.132813 -0.867188 0.425782 c -0.117187 -0.050782 -0.246094 -0.082032 -0.375 -0.085938 c -0.199218 -0.007812 -0.40625 0.03125 -0.601562 0.136719 c -0.007813 -0.585938 0.003906 -1.175781 -0.019532 -1.765625 c 0.019532 -0.066406 0.035157 -0.128906 0.019532 -0.175782 v -0.011718 l -0.007813 -0.011719 v -0.003906 l -0.007812 -0.007813 l -0.003907 -0.007812 l -0.007812 -0.007813 h -0.007812 c -0.003907 -0.09375 -0.011719 -0.1875 -0.019532 -0.28125 c -0.710937 0.066407 -1.449218 0.035157 -2.140625 0.179688 c -0.066406 0 -0.128906 -0.003907 -0.195312 -0.007813 c 0 0.019532 -0.003907 0.035156 0 0.054688 h -0.015625 c -0.003906 0 -0.015625 0.007812 -0.019532 0.011718 l -0.003906 0.007813 l -0.011718 0.007813 l -0.011719 0.011718 c -0.03125 0.085938 0.050781 0.265625 0.046875 0.371094 c -0.042969 0.996094 -0.15625 1.992188 -0.277344 2.984375 c -0.039062 0 -0.085938 0 -0.128906 0 c -0.15625 -0.039063 -0.441406 0.011719 -0.984375 0.109375 c 0 -0.039062 -0.003907 -0.082031 -0.003907 -0.121094 c -0.101562 -1.917968 -2.273437 -1.902344 -2.347656 -0.125 c -0.066406 -0.007812 -0.132812 -0.015625 -0.195312 -0.015625 c 0 -0.054687 -0.003906 -0.105469 -0.011719 -0.152343 c 0.433594 -1.308594 0.132813 -1.324219 -0.941406 -1.546876 c -0.964844 -0.132812 -1.933594 -0.238281 -2.902344 -0.328124 c 0.015625 -0.386719 0.019531 -0.773438 0.011719 -1.167969 c 0 -0.078125 0.058594 -0.199219 0.050781 -0.277344 v -0.019531 c 0 -0.003906 -0.007813 -0.015625 -0.007813 -0.015625 l -0.015624 -0.015625 v -0.007813 h -0.003907 l -0.015625 -0.015625 h -0.011718 c -0.382813 -0.070312 -0.78125 -0.097656 -1.171876 -0.105468 h -0.003906 c -0.394531 -0.003907 -0.78125 0.007812 -1.171875 0.023437 h -0.019531 v 0.007813 h -0.007812 v 0.003906 l -0.007813 0.007812 v 0.003906 c -0.007813 0.039063 0.023437 0.109376 0.019531 0.144532 v 0.078125 l -0.003906 0.003906 v 0.007813 h -0.007812 v 0.015624 c 0 0.019532 0 0.050782 0.007812 0.078126 c -0.011719 0.34375 -0.015625 0.6875 -0.019531 1.035156 c -0.351563 -0.03125 -0.699219 -0.066406 -1.050781 -0.101563 c 1.550781 -0.507812 1.21875 -2.121093 -0.632813 -2.183593 c -0.121094 -0.003907 -0.253906 -0.003907 -0.390625 0.007812 c -1.0625 0.082031 -2.125 0.109375 -3.1875 0.140625 c -1.054688 0.03125 -2.117188 0.042969 -3.171875 0.050781 c -0.273437 0.003906 -0.542969 0.003906 -0.8125 0.007813 v -24.472657 z m 0 0"/>
    </clipPath>
    <clipPath id="e">
        <path d="m 53 30 h 54 v 48 h -54 z m 0 0"/>
    </clipPath>
    <clipPath id="f">
        <path d="m 106.5 30.125 v 47.546875 h -53.03125 v -13.03125 c 1.113281 0.203125 2.226562 0.410156 3.335938 0.625 c -0.023438 0.566406 0.535156 1.164063 1.726562 1.269531 c 0.597656 0.054688 1.199219 0.109375 1.796875 0.164063 c -0.074219 1.753906 -0.148437 3.503906 -0.214844 5.257812 c -0.039062 1.089844 -0.074219 2.183594 -0.101562 3.273438 c -0.046875 1.996093 2.292969 2.035156 2.339843 0.042969 c 0.027344 -1.085938 0.066407 -2.167969 0.105469 -3.25 c 0.050781 -1.335938 0.105469 -2.667969 0.160157 -4 c 0.132812 -0.03125 0.296874 -0.074219 0.5 -0.128907 c 0.675781 0.207031 1.011718 0.308594 1.175781 0.269531 c 0.03125 0.023438 0.066406 0.039063 0.101562 0.042969 c 0.914063 0.109375 1.375 0.125 1.652344 0.023438 c -0.003906 0.703125 0.035156 1.75 0.464844 1.792969 c 0.246093 0.023437 0.484375 -0.007813 0.722656 -0.066407 c 0.269531 -0.027343 0.609375 -0.085937 1.046875 -0.175781 c 0.203125 0.03125 0.320312 0 0.378906 -0.082031 c 0.03125 -0.003907 0.058594 -0.015625 0.089844 -0.023438 c 0.015625 -0.003906 0.035156 -0.007812 0.046875 -0.019531 c 0.105469 -0.082031 0.035156 -0.328125 0.058594 -0.472656 c 0.039062 -0.226563 0.0625 -0.445313 0.09375 -0.675782 c 0.03125 -0.210937 0.0625 -0.425781 0.089843 -0.640624 c 0.1875 0.007812 0.34375 0.003906 0.390626 -0.027344 l 0.011718 -0.011719 c 0.082032 -0.199219 0.152344 -0.382813 0.210938 -0.550781 c 0.097656 1.296875 0.175781 2.589844 0.203125 3.890625 c 0.003906 0.34375 -0.011719 0.589843 0.011719 0.761719 c -0.027344 0.089843 -0.0625 0.191406 -0.050782 0.246093 v 0.003907 l 0.007813 0.007812 v 0.003906 l 0.003906 0.011719 l 0.011719 0.003906 l 0.003906 0.007813 l 0.007812 0.003906 h 0.007813 l 0.003906 0.007812 h 0.023438 h 0.175781 c 0.160156 0.078126 0.449219 0.097657 0.957031 0.09375 c 0.597657 0.492188 1.664063 0.207032 1.953125 -1.0625 c 0.007813 -0.042968 0.015625 -0.085937 0.023438 -0.128906 c 0.078125 0.015625 0.15625 0.03125 0.230468 0.050782 c 0.050782 -0.15625 0.113282 -0.304688 0.148438 -0.460938 c 0.046875 -0.21875 0.015625 -0.453125 0.019531 -0.675781 c 0.007813 -0.167969 0.015625 -0.335938 0.019531 -0.503907 c 0.039063 -0.125 0.074219 -0.246093 0.113282 -0.371093 c 0.019531 -0.054688 0.035156 -0.101563 0.050781 -0.15625 c 0.035156 0.382812 0.070313 0.761719 0.101563 1.144531 c 0.027343 0.335938 0.050781 0.667969 0.078124 1.003906 c 0.019532 0.191406 -0.160156 0.503906 0.046876 0.574219 l 0.007812 0.007813 h 0.007812 l 0.007813 0.007812 h 0.007813 c 0 0.039062 -0.007813 0.074219 -0.007813 0.113281 c 0.117187 -0.015625 0.238281 -0.019531 0.355469 -0.03125 c 0.640625 0.121094 1.332031 0.0625 1.988281 0.121094 c 0.003906 -0.128906 0.007813 -0.261719 0.011719 -0.394531 c 0.066406 -0.050782 0.042968 -0.148438 0.003906 -0.257813 c 0.019531 -1.011719 -0.015625 -2.023437 0.015625 -3.03125 c 0.003906 -0.410156 0.003906 -0.816406 0.007813 -1.226562 c 0.5625 0.59375 1.179687 1.21875 1.324218 0.210937 c 0.042969 -0.308594 0.039063 -0.183594 0.039063 -0.382812 c 0.003906 -0.230469 0.003906 -0.460938 0.007812 -0.691406 c 0.003907 -0.101563 0.011719 -0.199219 0.015625 -0.300782 c 0.003906 -0.015625 0.003906 -0.03125 0.007813 -0.046875 c 0 0 0 -0.003906 0.003906 -0.007812 v 0.007812 v 0.003907 h 0.003906 v 0.007812 h 0.003907 l 0.003906 0.003906 v 0.003906 h 0.003906 l 0.003906 0.003907 h 0.003906 c 0 -0.003907 0.003907 -0.003907 0.003907 0 h 0.003906 h 0.007813 v -0.003907 h 0.003906 l 0.003906 -0.003906 v -0.003906 h 0.003906 v -0.003906 c 0.003906 -0.007813 0.007813 -0.019532 0.007813 -0.03125 v -0.039063 c 0 -0.003906 0 -0.011719 0 -0.019531 s 0 -0.019531 0 -0.027344 c 0 -0.007812 0 -0.023437 0 -0.03125 c 0 -0.007812 0 -0.015625 0.003906 -0.027344 c 0 -0.011718 0.003906 -0.023437 0.003906 -0.035156 c 0 -0.011718 0 -0.027344 0 -0.039062 c 0 -0.015625 0 -0.03125 0 -0.046875 c 0 -0.011719 0 -0.027344 0 -0.042969 c 0 -0.011719 0 -0.019531 0.003907 -0.03125 c 0 -0.015625 0 -0.027344 0.003906 -0.042969 c 0 -0.011719 0 -0.023437 0 -0.035156 c 0 -0.015625 0 -0.027344 0.003906 -0.042969 c 0 -0.011718 0 -0.03125 0 -0.046875 v -0.191406 c 0 -0.007813 0 -0.019531 0 -0.03125 c 0 -0.007813 0 -0.023437 0 -0.03125 c 0 -0.015625 0.003906 -0.035156 0.003906 -0.050781 c 0 -0.03125 0 -0.058594 0.003906 -0.089844 c 0 -0.027344 0.003907 -0.058594 0.011719 -0.089844 c 0 -0.011718 0 -0.023437 -0.003906 -0.03125 v -0.007812 c 0.027344 -0.179688 0.0625 -0.363282 0.089844 -0.542969 c 0.046875 -0.5 0.03125 -1 0.058593 -1.5 c 0.03125 -0.652344 0.085938 -1.308594 0.171876 -1.960937 c 0.078124 -0.628907 0.152343 -1.257813 0.21875 -1.890626 c 0.113281 -1.054687 -0.484376 -1.632812 -1.101563 -1.640624 c -0.3125 -0.007813 -0.632813 0.132812 -0.867187 0.425781 c -0.117188 -0.050781 -0.246094 -0.082031 -0.378907 -0.085938 c -0.195312 -0.007812 -0.402343 0.03125 -0.597656 0.136719 c -0.011719 -0.585938 0 -1.175781 -0.023437 -1.765625 c 0.023437 -0.066406 0.035156 -0.128906 0.023437 -0.175781 v -0.011719 l -0.011719 -0.011719 v -0.003906 l -0.003906 -0.007812 l -0.015625 -0.015626 h -0.003906 c -0.007813 -0.09375 -0.015625 -0.1875 -0.023438 -0.28125 c -0.710937 0.066407 -1.449219 0.035157 -2.140625 0.179688 c -0.066406 0 -0.128906 -0.003906 -0.195312 -0.007812 v 0.054687 h -0.011719 c -0.003906 0 -0.015625 0.007813 -0.019531 0.011719 l -0.015625 0.015625 l -0.007813 0.003906 l -0.003906 0.007813 c -0.035156 0.085937 0.050781 0.265624 0.046875 0.371093 c -0.042969 0.996094 -0.160156 1.992188 -0.277344 2.984375 c -0.042969 0 -0.089843 0 -0.128906 0 c -0.15625 -0.039062 -0.445313 0.011719 -0.984375 0.109375 c -0.003906 -0.039062 -0.003906 -0.082031 -0.007812 -0.121093 c -0.097657 -1.917969 -2.269532 -1.902344 -2.34375 -0.125 c -0.066407 -0.007813 -0.136719 -0.015626 -0.195313 -0.015626 c -0.003906 -0.054687 -0.007813 -0.105468 -0.015625 -0.152343 c 0.433594 -1.308594 0.136719 -1.324219 -0.9375 -1.546875 c -0.964844 -0.132813 -1.933594 -0.238282 -2.90625 -0.328125 c 0.015625 -0.386719 0.023438 -0.773438 0.015625 -1.167969 c -0.003906 -0.078125 0.054687 -0.199219 0.050781 -0.277344 v -0.019531 c -0.003906 -0.003906 -0.007812 -0.015625 -0.011718 -0.015625 l -0.003907 -0.007812 l -0.007812 -0.007813 v -0.007813 h -0.007813 l -0.003906 -0.007812 l -0.011719 -0.007812 h -0.011719 c -0.382812 -0.070313 -0.777343 -0.097657 -1.171874 -0.105469 h -0.003907 c -0.390625 -0.003907 -0.78125 0.007812 -1.171875 0.019531 h -0.019531 v 0.011719 h -0.003906 v 0.003906 l -0.011719 0.007813 v 0.003906 c -0.003906 0.039062 0.023438 0.105468 0.023438 0.144531 c -0.003907 0.027344 0 0.050781 0 0.078125 l -0.007813 0.003906 v 0.007813 h -0.003906 v 0.015625 c -0.003907 0.019531 -0.003907 0.050781 0.003906 0.078125 c -0.007813 0.34375 -0.011719 0.6875 -0.015625 1.035156 c -0.351562 -0.03125 -0.703125 -0.066406 -1.050781 -0.101563 c 1.546875 -0.507812 1.21875 -2.121093 -0.632813 -2.183593 c -0.125 -0.003907 -0.253906 -0.003907 -0.390625 0.007812 c -1.0625 0.082031 -2.125 0.109375 -3.1875 0.140625 c -1.058593 0.027344 -2.117187 0.042969 -3.175781 0.050782 c -0.269531 0.003906 -0.539062 0.003906 -0.808594 0.007812 v -24.472656 z m 0 0"/>
    </clipPath>
    <clipPath id="g">
        <rect height="152" width="192"/>
    </clipPath>
    <clipPath id="h">
        <rect height="152" width="192"/>
    </clipPath>
    <clipPath id="i">
        <rect height="152" width="192"/>
    </clipPath>
    <path d="m 20.839844 16 h 88 c 4.421875 0 8 3.582031 8 8 v 84 c 0 4.417969 -3.578125 8 -8 8 h -88 c -4.417969 0 -8 -3.582031 -8 -8 v -84 c 0 -4.417969 3.582031 -8 8 -8 z m 0 0" fill="url(#a)"/>
    <path d="m 20.5625 12 h 88 c 4.417969 0 8 3.582031 8 8 v 84 c 0 4.417969 -3.582031 8 -8 8 h -88 c -4.417969 0 -8 -3.582031 -8 -8 v -84 c 0 -4.417969 3.582031 -8 8 -8 z m 0 0" fill="url(#b)"/>
    <g clip-path="url(#c)">
        <g clip-path="url(#d)">
            <path d="m 81.277344 79.933594 c -1.808594 0.046875 -3.5625 -1.148438 -3.5625 -2.96875 v -8.917969 h -17.285156 c -2.875 0 -5.265626 -1.671875 -6.117188 -3.121094 c -0.835938 -1.464843 -0.796875 -2.820312 -0.796875 -2.820312 v -11.890625 s -0.039063 -1.355469 0.796875 -2.820313 c 0.851562 -1.449219 3.242188 -3.121093 6.117188 -3.121093 h 17.285156 v -8.917969 c 0 -1.820313 1.753906 -3.015625 3.5625 -2.96875 c 0.824218 0.011719 1.664062 0.289062 2.335937 0.867187 l 20.742188 17.832032 c 0.09375 0.082031 0.175781 0.164062 0.269531 0.257812 c 1.285156 1.402344 1.917969 3.109375 1.917969 4.816406 c 0 1.707032 -0.632813 3.414063 -1.917969 4.816406 c -0.09375 0.09375 -0.175781 0.175782 -0.269531 0.257813 l -20.742188 17.828125 c -0.671875 0.582031 -1.511719 0.859375 -2.335937 0.871094 z m 3.160156 -8.914063 c 5.078125 -4.761719 9.5625 -8.914062 14.773438 -13.769531 c 0.40625 -0.453125 0.59375 -0.777344 0.609374 -1.089844 c -0.015624 -0.3125 -0.203124 -0.640625 -0.609374 -1.089844 c -5.210938 -4.855468 -9.695313 -9.011718 -14.773438 -13.769531 l 0.191406 5.945313 v 2.96875 h -24.199218 v 11.890625 h 24.199218 v 2.96875 z m 0 0"/>
        </g>
    </g>
    <g clip-path="url(#e)">
        <g clip-path="url(#f)">
            <path d="m 81.234375 77.671875 c -1.808594 0.046875 -3.566406 -1.148437 -3.566406 -2.972656 v -8.914063 h -17.285157 c -2.875 0 -5.265624 -1.671875 -6.117187 -3.121094 c -0.835937 -1.464843 -0.792969 -2.824218 -0.792969 -2.824218 v -11.886719 s -0.042968 -1.355469 0.792969 -2.820313 c 0.851563 -1.449218 3.242187 -3.121093 6.117187 -3.121093 h 17.285157 v -8.917969 c 0 -1.820312 1.757812 -3.015625 3.566406 -2.972656 c 0.824219 0.015625 1.660156 0.292968 2.335937 0.871094 l 20.742188 17.832031 c 0.09375 0.082031 0.175781 0.164062 0.269531 0.257812 c 1.28125 1.402344 1.917969 3.109375 1.917969 4.816407 c 0 1.707031 -0.636719 3.414062 -1.917969 4.816406 c -0.09375 0.09375 -0.175781 0.175781 -0.269531 0.257812 l -20.742188 17.828125 c -0.675781 0.582031 -1.511718 0.859375 -2.335937 0.871094 z m 3.160156 -8.914063 c 5.078125 -4.761718 9.558594 -8.917968 14.773438 -13.769531 c 0.402343 -0.453125 0.59375 -0.777343 0.605469 -1.089843 c -0.011719 -0.3125 -0.203126 -0.640626 -0.605469 -1.089844 c -5.214844 -4.855469 -9.695313 -9.011719 -14.773438 -13.769532 l 0.1875 5.941407 v 2.972656 h -24.199219 v 11.886719 h 24.199219 v 2.972656 z m 0 0" fill="#241f31"/>
        </g>
    </g>
    <path d="m 46.4375 95.929688 c 1.773438 0.042968 3.492188 -1.132813 3.492188 -2.929688 v -8.785156 h 16.929687 c 2.816406 0 5.15625 -1.644532 5.992187 -3.074219 c 0.820313 -1.441406 0.78125 -2.78125 0.78125 -2.78125 v -11.710937 s 0.039063 -1.339844 -0.78125 -2.78125 c -0.835937 -1.429688 -3.175781 -3.074219 -5.992187 -3.074219 h -16.929687 v -8.785157 c 0 -1.796874 -1.71875 -2.972656 -3.492188 -2.929687 c -0.804688 0.011719 -1.625 0.289063 -2.285156 0.859375 l -20.316406 17.566406 c -0.089844 0.082032 -0.171876 0.160156 -0.261719 0.253906 c -1.257813 1.382813 -1.878907 3.066407 -1.878907 4.746094 c 0 1.679688 0.621094 3.363282 1.878907 4.746094 c 0.089843 0.09375 0.171875 0.171875 0.261719 0.253906 l 20.316406 17.566406 c 0.660156 0.570313 1.480468 0.847657 2.285156 0.859376 z m -3.09375 -8.785157 c -4.972656 -4.691406 -9.363281 -8.785156 -14.46875 -13.566406 c -0.394531 -0.445313 -0.582031 -0.765625 -0.59375 -1.074219 c 0.011719 -0.308594 0.199219 -0.628906 0.59375 -1.074218 c 5.105469 -4.78125 9.496094 -8.875 14.46875 -13.566407 l -0.183594 5.855469 v 2.929688 h 23.699219 v 11.710937 h -23.699219 v 2.929687 z m 0 0"/>
    <g clip-path="url(#g)" transform="matrix(1 0 0 1 -8 -16)">
        <path d="m 88.390244 238.495689 l -0.007813 -4.777343 h -26.363281 v -12.738282 h 26.363281 l 0.015625 -9.554687 l 7.601563 7.304687 c 4.179687 4.019532 7.816406 7.691407 8.078125 8.160157 c 0.445312 0.800781 -0.015625 1.320312 -7.601563 8.617187 l -8.074219 7.765625 z m 0 0" fill-rule="evenodd" stroke="#000000" stroke-width="0.383954" transform="matrix(-1 0 0 1 140.085556 -139.011314)"/>
    </g>
    <path d="m 46.378906 92.898438 c 1.773438 0.046874 3.492188 -1.132813 3.492188 -2.929688 v -8.78125 h 16.929687 c 2.816407 0 5.15625 -1.648438 5.988281 -3.078125 c 0.820313 -1.441406 0.78125 -2.78125 0.78125 -2.78125 v -11.710937 s 0.039063 -1.335938 -0.78125 -2.777344 c -0.832031 -1.429688 -3.171874 -3.078125 -5.988281 -3.078125 h -16.929687 v -8.785157 c 0 -1.792968 -1.71875 -2.972656 -3.492188 -2.925781 c -0.804687 0.011719 -1.625 0.285157 -2.289062 0.855469 l -20.3125 17.570312 c -0.09375 0.078126 -0.171875 0.160157 -0.265625 0.25 c -1.253907 1.382813 -1.878907 3.066407 -1.878907 4.746094 c 0 1.683594 0.625 3.363282 1.878907 4.746094 c 0.09375 0.09375 0.171875 0.171875 0.265625 0.253906 l 20.3125 17.566406 c 0.664062 0.574219 1.484375 0.847657 2.289062 0.859376 z m -3.09375 -8.785157 c -4.972656 -4.6875 -9.363281 -8.785156 -14.46875 -13.5625 c -0.398437 -0.449219 -0.582031 -0.769531 -0.59375 -1.078125 c 0.011719 -0.308594 0.195313 -0.628906 0.59375 -1.074218 c 5.105469 -4.78125 9.496094 -8.875 14.46875 -13.566407 l -0.1875 5.859375 v 2.925782 h 23.703125 v 11.710937 h -23.703125 v 2.929687 z m 0 0" fill="#241f31"/>
    <g clip-path="url(#h)" transform="matrix(1 0 0 1 -8 -16)">
        <path d="m 51.632812 96.453125 l 0.011719 -4.777344 h 26.363281 v -12.738281 h -26.363281 l -0.015625 -9.554688 l -7.601562 7.308594 c -4.183594 4.015625 -7.816406 7.6875 -8.078125 8.15625 c -0.445313 0.800782 0.011719 1.320313 7.601562 8.617188 l 8.074219 7.765625 z m 0 0" fill="#241f31" fill-rule="evenodd"/>
    </g>
    <g clip-path="url(#i)" transform="matrix(1 0 0 1 -8 -16)">
        <path d="m 172.640625 27.160156 v -0.800781 h 4.410156 v -2.128906 h -4.410156 v -1.601563 l -1.273437 1.222656 c -0.699219 0.671876 -1.308594 1.285157 -1.351563 1.367188 c -0.074219 0.132812 0.003906 0.21875 1.273437 1.441406 l 1.347657 1.296875 z m 0 0" fill-rule="evenodd"/>
    </g>
</svg>
