<?xml version="1.0" encoding="UTF-8"?>
<svg height="128px" viewBox="0 0 128 128" width="128px" xmlns="http://www.w3.org/2000/svg" xmlns:xlink="http://www.w3.org/1999/xlink">
    <linearGradient id="a" gradientTransform="matrix(0.232143 0 0 0.327667 -8.667871 262.950958)" gradientUnits="userSpaceOnUse" x1="88.595886" x2="536.595886" y1="-449.394012" y2="-449.394012">
        <stop offset="0" stop-color="#1a5fb4"/>
        <stop offset="0.0384615" stop-color="#62a0ea"/>
        <stop offset="0.130732" stop-color="#1c71d8"/>
        <stop offset="0.880734" stop-color="#1c71d8"/>
        <stop offset="0.961538" stop-color="#62a0ea"/>
        <stop offset="1" stop-color="#1a5fb4"/>
    </linearGradient>
    <linearGradient id="b" gradientUnits="userSpaceOnUse" x1="6.903229" x2="113.886292" y1="6.377601" y2="112.738547">
        <stop offset="0" stop-color="#1a5fb4"/>
        <stop offset="0.184697" stop-color="#1c71d8"/>
        <stop offset="0.525214" stop-color="#99c1f1"/>
        <stop offset="0.887301" stop-color="#1c71d8"/>
        <stop offset="1" stop-color="#1a5fb4"/>
    </linearGradient>
    <clipPath id="c">
        <path d="m 53 31 h 54 v 48 h -54 z m 0 0"/>
    </clipPath>
    <clipPath id="d">
        <path d="m 106.3125 31.140625 v 47.546875 h -53.027344 v -13.03125 c 1.109375 0.203125 2.222656 0.410156 3.332032 0.625 c -0.019532 0.566406 0.535156 1.164062 1.726562 1.269531 c 0.597656 0.054688 1.199219 0.105469 1.800781 0.164063 c -0.074219 1.75 -0.152343 3.503906 -0.214843 5.257812 c -0.042969 1.089844 -0.078126 2.179688 -0.105469 3.273438 c -0.046875 1.996094 2.292969 2.035156 2.34375 0.039062 c 0.023437 -1.082031 0.0625 -2.164062 0.101562 -3.25 c 0.050781 -1.332031 0.105469 -2.667968 0.164063 -4 c 0.128906 -0.03125 0.292968 -0.070312 0.5 -0.125 c 0.675781 0.207032 1.007812 0.308594 1.171875 0.269532 c 0.03125 0.023437 0.066406 0.039062 0.105469 0.042968 c 0.910156 0.109375 1.371093 0.125 1.652343 0.023438 c -0.007812 0.703125 0.03125 1.75 0.464844 1.792968 c 0.246094 0.023438 0.484375 -0.007812 0.722656 -0.070312 c 0.265625 -0.027344 0.605469 -0.082031 1.046875 -0.171875 c 0.199219 0.03125 0.316406 0 0.378906 -0.082031 c 0.027344 -0.007813 0.054688 -0.019532 0.085938 -0.023438 c 0.019531 -0.003906 0.035156 -0.007812 0.046875 -0.019531 c 0.105469 -0.082031 0.035156 -0.328125 0.0625 -0.472656 c 0.039063 -0.226563 0.058594 -0.449219 0.09375 -0.675781 c 0.027344 -0.210938 0.058594 -0.429688 0.085937 -0.640626 c 0.1875 0.007813 0.34375 0.003907 0.390626 -0.027343 l 0.003906 -0.003907 h 0.003906 v -0.003906 l 0.003906 -0.003906 c 0.082032 -0.203125 0.152344 -0.386719 0.214844 -0.550781 c 0.09375 1.292969 0.171875 2.589843 0.199219 3.890625 c 0.007812 0.34375 -0.011719 0.589844 0.015625 0.761718 c -0.03125 0.089844 -0.0625 0.1875 -0.050782 0.246094 v 0.003906 l 0.003907 0.007813 v 0.003906 l 0.027343 0.027344 h 0.007813 l 0.003906 0.003906 c 0.003907 0.003907 0.019531 0 0.023438 0 c 0.058593 0.003907 0.117187 0 0.175781 0 c 0.160156 0.082031 0.449219 0.101563 0.957031 0.09375 c 0.597657 0.492188 1.664063 0.210938 1.953125 -1.0625 c 0.007813 -0.039062 0.015625 -0.082031 0.023438 -0.125 c 0.078125 0.015625 0.15625 0.03125 0.230468 0.050781 c 0.050782 -0.15625 0.113282 -0.304687 0.148438 -0.464843 c 0.046875 -0.21875 0.015625 -0.449219 0.023438 -0.671875 c 0.003906 -0.167969 0.011718 -0.339844 0.019531 -0.507813 c 0.035156 -0.125 0.070312 -0.246093 0.113281 -0.371093 c 0.015625 -0.050782 0.03125 -0.101563 0.050781 -0.152344 c 0.03125 0.382812 0.066407 0.761718 0.097657 1.140625 c 0.027343 0.335937 0.050781 0.671875 0.082031 1.003906 c 0.015625 0.195313 -0.164063 0.507813 0.046875 0.574219 l 0.003906 0.011718 h 0.011719 l 0.003906 0.003907 h 0.007813 c 0 0.042969 -0.007813 0.074219 -0.007813 0.117187 c 0.117187 -0.015625 0.238281 -0.023437 0.359375 -0.03125 c 0.640625 0.121094 1.328125 0.0625 1.984375 0.121094 c 0.007813 -0.132812 0.007813 -0.261719 0.011719 -0.394531 c 0.066406 -0.050781 0.046875 -0.152344 0.007812 -0.257813 c 0.015625 -1.011718 -0.019531 -2.023437 0.015625 -3.03125 c 0 -0.410156 0 -0.816406 0.003907 -1.226562 c 0.5625 0.59375 1.179687 1.21875 1.324218 0.210937 c 0.042969 -0.308593 0.039063 -0.183593 0.042969 -0.382812 c 0 -0.230469 0 -0.460938 0.007813 -0.691407 c 0 -0.101562 0.007812 -0.203124 0.011718 -0.300781 c 0.003906 -0.015625 0.003906 -0.03125 0.007813 -0.046875 c 0 0 0.003906 -0.003906 0.003906 -0.007812 v 0.007812 v 0.003906 h 0.003906 v 0.007813 h 0.003907 l 0.003906 0.003906 h 0.003906 v 0.003907 h 0.007812 h 0.003907 h 0.003906 h 0.007813 s 0.003906 -0.003907 0.003906 -0.003907 h 0.003906 v -0.003906 h 0.003906 v -0.003906 c 0.003906 -0.007813 0.007813 -0.019531 0.007813 -0.035157 v -0.035156 c 0 -0.003906 0 -0.015625 0 -0.019531 c 0 -0.011719 0 -0.019531 0 -0.027344 c 0 -0.007812 0 -0.023437 0 -0.03125 c 0 -0.007812 0.003906 -0.019531 0.003906 -0.027343 c 0 -0.011719 0.003906 -0.023438 0.003906 -0.035157 s 0 -0.027343 0 -0.039062 c 0 -0.015625 0 -0.03125 0 -0.046875 c 0 -0.011719 0 -0.027344 0 -0.042969 c 0 -0.011719 0.003907 -0.019531 0.003907 -0.03125 c 0 -0.015625 0.003906 -0.027344 0.003906 -0.042969 c 0 -0.011718 0 -0.023437 0 -0.035156 c 0 -0.015625 0 -0.027344 0.003906 -0.042969 c 0 -0.015625 0 -0.03125 0 -0.046875 v -0.191406 c 0 -0.011719 0 -0.023438 0 -0.03125 s 0 -0.023438 0 -0.03125 c 0 -0.015625 0.003906 -0.035156 0.003906 -0.050781 c 0 -0.03125 0 -0.058594 0.003906 -0.089844 c 0 -0.03125 0.003907 -0.0625 0.011719 -0.089844 c 0.003907 -0.011719 0 -0.027343 -0.003906 -0.03125 v -0.007812 c 0.03125 -0.179688 0.0625 -0.363281 0.089844 -0.542969 c 0.050781 -0.5 0.03125 -1 0.058593 -1.5 c 0.035157 -0.65625 0.085938 -1.308594 0.171876 -1.960938 c 0.078124 -0.628906 0.152343 -1.257812 0.21875 -1.890624 c 0.113281 -1.054688 -0.480469 -1.632813 -1.101563 -1.640626 c -0.3125 -0.007812 -0.632813 0.128907 -0.867187 0.425782 c -0.117188 -0.050782 -0.246094 -0.082032 -0.378907 -0.085938 c -0.195312 -0.011718 -0.402343 0.03125 -0.597656 0.136719 c -0.007813 -0.589844 0.003906 -1.179687 -0.023437 -1.765625 c 0.023437 -0.066406 0.035156 -0.132812 0.023437 -0.175781 v -0.015625 l -0.011719 -0.007813 v -0.007812 l -0.019531 -0.019531 h -0.003906 c -0.007813 -0.09375 -0.015625 -0.1875 -0.023438 -0.28125 c -0.710937 0.066406 -1.449219 0.035156 -2.140625 0.179687 c -0.066406 -0.003906 -0.128906 -0.003906 -0.195312 -0.007813 v 0.054688 h -0.011719 c -0.003906 0 -0.015625 0.007812 -0.019531 0.011719 l -0.007813 0.007812 l -0.007812 0.003907 l -0.011719 0.011718 c -0.035156 0.085938 0.050781 0.265625 0.046875 0.371094 c -0.042969 0.996094 -0.160156 1.996094 -0.277344 2.988281 c -0.042969 0 -0.089843 0 -0.128906 0 c -0.15625 -0.039062 -0.441406 0.011719 -0.984375 0.109375 c -0.003906 -0.039062 -0.003906 -0.082031 -0.007812 -0.125 c -0.097657 -1.914062 -2.269532 -1.898437 -2.34375 -0.125 c -0.066407 -0.003906 -0.132813 -0.011718 -0.195313 -0.011718 c -0.003906 -0.054688 -0.007813 -0.105469 -0.015625 -0.152344 c 0.433594 -1.308594 0.136719 -1.328125 -0.9375 -1.546875 c -0.964844 -0.132813 -1.933594 -0.238281 -2.90625 -0.328125 c 0.015625 -0.390625 0.023438 -0.777344 0.015625 -1.167969 c -0.003906 -0.078125 0.054687 -0.203125 0.050781 -0.277344 v -0.019531 c -0.003906 -0.003906 -0.007812 -0.015625 -0.011718 -0.019531 l -0.003907 -0.003907 l -0.007812 -0.011718 v -0.003906 h -0.007813 l -0.003906 -0.007813 l -0.011719 -0.011719 h -0.011719 c -0.382812 -0.066406 -0.777343 -0.09375 -1.171874 -0.101562 h -0.003907 c -0.390625 -0.007813 -0.78125 0.003906 -1.171875 0.019531 h -0.019531 v 0.007813 h -0.003906 v 0.007812 l -0.011719 0.007812 v 0.003907 c -0.003906 0.035156 0.023438 0.105469 0.023438 0.144531 v 0.074219 l -0.007813 0.007812 v 0.007813 h -0.003906 v 0.011718 c -0.003907 0.023438 -0.003907 0.054688 0.003906 0.082032 c -0.007813 0.34375 -0.011719 0.6875 -0.015625 1.03125 c -0.351562 -0.03125 -0.703125 -0.0625 -1.050781 -0.097656 c 1.546875 -0.507813 1.21875 -2.125 -0.632813 -2.1875 c -0.125 0 -0.253906 0 -0.390625 0.011718 c -1.0625 0.078125 -2.125 0.109375 -3.1875 0.140625 c -1.058593 0.027344 -2.117187 0.042969 -3.175781 0.050781 c -0.269531 0 -0.539062 0.003907 -0.808594 0.007813 v -24.476563 z m 0 0"/>
    </clipPath>
    <clipPath id="e">
        <path d="m 53 28 h 54 v 49 h -54 z m 0 0"/>
    </clipPath>
    <clipPath id="f">
        <path d="m 106.269531 28.878906 v 47.546875 h -53.03125 v -13.03125 c 1.113281 0.203125 2.222657 0.410157 3.335938 0.625 c -0.023438 0.5625 0.535156 1.164063 1.726562 1.269531 c 0.597657 0.054688 1.199219 0.105469 1.796875 0.164063 c -0.074218 1.75 -0.148437 3.503906 -0.214844 5.257813 c -0.039062 1.089843 -0.078124 2.179687 -0.101562 3.273437 c -0.050781 1.996094 2.292969 2.035156 2.339844 0.039063 c 0.027344 -1.082032 0.0625 -2.164063 0.105468 -3.25 c 0.046876 -1.332032 0.105469 -2.667969 0.160157 -4 c 0.132812 -0.03125 0.296875 -0.070313 0.5 -0.125 c 0.675781 0.207031 1.007812 0.308593 1.175781 0.269531 c 0.03125 0.019531 0.066406 0.039062 0.101562 0.042969 c 0.910157 0.109374 1.375 0.125 1.652344 0.023437 c -0.007812 0.703125 0.03125 1.75 0.464844 1.792969 c 0.246094 0.023437 0.484375 -0.011719 0.722656 -0.070313 c 0.265625 -0.027343 0.609375 -0.082031 1.046875 -0.171875 c 0.203125 0.03125 0.316407 0 0.378907 -0.082031 c 0.03125 -0.007813 0.058593 -0.019531 0.089843 -0.023437 c 0.015625 -0.003907 0.03125 -0.007813 0.046875 -0.019532 c 0.105469 -0.082031 0.035156 -0.328125 0.058594 -0.472656 c 0.039062 -0.226562 0.0625 -0.449219 0.09375 -0.675781 c 0.03125 -0.214844 0.058594 -0.429688 0.089844 -0.640625 c 0.183594 0.007812 0.34375 0.003906 0.390625 -0.027344 v -0.003906 h 0.003906 l 0.003906 -0.003906 v -0.003907 h 0.003907 c 0.078124 -0.203125 0.152343 -0.386719 0.210937 -0.554687 c 0.097656 1.296875 0.175781 2.59375 0.203125 3.894531 c 0.003906 0.34375 -0.015625 0.589844 0.011719 0.761719 c -0.027344 0.089844 -0.0625 0.1875 -0.050781 0.246094 v 0.003906 l 0.007812 0.007812 v 0.003906 l 0.003906 0.007813 l 0.007813 0.007813 l 0.007812 0.003906 l 0.003907 0.007812 h 0.007812 l 0.007812 0.003906 c 0.003907 0.003907 0.015626 0 0.019532 0 c 0.0625 0.003907 0.117187 0 0.175781 0 c 0.164063 0.082032 0.453125 0.101563 0.960937 0.09375 c 0.59375 0.492188 1.664063 0.210938 1.949219 -1.0625 c 0.011719 -0.039062 0.015625 -0.082031 0.027344 -0.125 c 0.074219 0.015626 0.152344 0.03125 0.230469 0.050782 c 0.046875 -0.15625 0.113281 -0.304688 0.148437 -0.464844 c 0.046875 -0.21875 0.011719 -0.449219 0.019531 -0.671875 c 0.003907 -0.167969 0.015626 -0.339844 0.019532 -0.507813 c 0.039062 -0.125 0.074218 -0.246093 0.113281 -0.371093 c 0.015625 -0.050781 0.035156 -0.101563 0.050781 -0.152344 c 0.03125 0.382813 0.066406 0.761719 0.101563 1.140625 c 0.027343 0.335938 0.050781 0.671875 0.078125 1.003906 c 0.015625 0.195313 -0.160156 0.507813 0.046875 0.574219 l 0.007812 0.011719 h 0.007813 l 0.007812 0.003906 h 0.007813 c -0.003907 0.042969 -0.007813 0.074219 -0.007813 0.117188 c 0.117188 -0.015626 0.234375 -0.023438 0.355469 -0.03125 c 0.640625 0.121093 1.328125 0.0625 1.988281 0.121093 c 0.003906 -0.132812 0.007813 -0.261719 0.011719 -0.394531 c 0.066406 -0.050781 0.042969 -0.152344 0.003906 -0.257812 c 0.015625 -1.011719 -0.019531 -2.023438 0.015625 -3.03125 c 0.003906 -0.410157 0.003906 -0.816407 0.007813 -1.226563 c 0.558593 0.59375 1.175781 1.21875 1.324219 0.210937 c 0.042968 -0.308593 0.039062 -0.183593 0.039062 -0.382812 c 0.003906 -0.230469 0 -0.460938 0.007812 -0.691406 c 0.003907 -0.101563 0.007813 -0.203125 0.015626 -0.300782 c 0 -0.015624 0.003906 -0.03125 0.007812 -0.046874 c 0 -0.003907 0 -0.003907 0 -0.007813 c 0 0 0.003906 0.003906 0.003906 0.007813 v 0.003906 l 0.003906 0.003906 v 0.003906 h 0.003907 v 0.003906 h 0.003906 l 0.003906 0.003907 h 0.003907 h 0.003906 h 0.007812 h 0.007813 s 0.003906 -0.003907 0.003906 -0.003907 l 0.003906 -0.003906 v -0.003906 c 0.007813 -0.007812 0.011719 -0.019531 0.011719 -0.035156 v -0.035156 c 0 -0.003907 0 -0.015626 0 -0.019532 c 0 -0.011718 0 -0.019531 0 -0.027344 c 0 -0.007812 0 -0.023437 0 -0.03125 c 0 -0.007812 0 -0.019531 0 -0.027343 c 0.003906 -0.011719 0.007812 -0.023438 0.007812 -0.035157 c 0 -0.015624 0 -0.027343 0 -0.039062 c 0 -0.015625 0 -0.03125 0 -0.046875 c 0 -0.011719 0 -0.027344 0 -0.042969 c 0 -0.011718 0 -0.019531 0 -0.03125 c 0.003907 -0.015625 0.003907 -0.027344 0.003907 -0.042968 c 0 -0.011719 0 -0.023438 0 -0.035157 c 0.003906 -0.015625 0.003906 -0.027343 0.003906 -0.042969 c 0.003906 -0.015624 0.003906 -0.03125 0.003906 -0.046874 v -0.191407 c 0 -0.011719 0 -0.023437 0 -0.03125 c 0 -0.007812 0 -0.023437 0 -0.03125 c 0 -0.019531 0 -0.035156 0 -0.050781 c 0.003907 -0.03125 0.003907 -0.0625 0.003907 -0.089844 c 0.003906 -0.03125 0.007812 -0.0625 0.011718 -0.089844 c 0.003906 -0.015624 0.003906 -0.027343 0 -0.03125 v -0.007812 c 0.027344 -0.179688 0.058594 -0.363281 0.085938 -0.542969 c 0.050781 -0.5 0.03125 -1 0.0625 -1.5 c 0.03125 -0.65625 0.082031 -1.308593 0.167968 -1.960937 c 0.082032 -0.628906 0.15625 -1.257813 0.222657 -1.890625 c 0.109375 -1.054688 -0.484375 -1.632813 -1.105469 -1.640625 c -0.3125 -0.007813 -0.632812 0.128906 -0.867188 0.425781 c -0.117187 -0.054687 -0.242187 -0.082031 -0.375 -0.085937 c -0.199218 -0.011719 -0.402343 0.03125 -0.601562 0.136718 c -0.007812 -0.589844 0.003906 -1.179687 -0.019531 -1.765625 c 0.019531 -0.066406 0.035156 -0.132812 0.019531 -0.175781 v -0.015625 l -0.007812 -0.007813 v -0.007812 l -0.007813 -0.003906 l -0.003906 -0.007813 l -0.007813 -0.007812 h -0.007812 c -0.003906 -0.09375 -0.011719 -0.1875 -0.019532 -0.28125 c -0.710937 0.066406 -1.449218 0.035156 -2.140624 0.179687 c -0.066407 -0.003906 -0.128907 -0.003906 -0.195313 -0.007812 v 0.054687 h -0.015625 s -0.015625 0.007813 -0.019531 0.011719 l -0.003907 0.007812 l -0.011718 0.003907 l -0.003906 0.007812 l -0.007813 0.003907 c -0.03125 0.085937 0.054687 0.265624 0.046875 0.371093 c -0.042969 0.996094 -0.15625 1.996094 -0.277344 2.988281 c -0.039062 0 -0.085937 0 -0.128906 0 c -0.15625 -0.039062 -0.441406 0.011719 -0.984375 0.109376 c 0 -0.042969 -0.003906 -0.082032 -0.003906 -0.125 c -0.101563 -1.914063 -2.269531 -1.898438 -2.347657 -0.125 c -0.066406 -0.003907 -0.132812 -0.011719 -0.195312 -0.011719 c 0 -0.054688 -0.003906 -0.105469 -0.011719 -0.152344 c 0.433594 -1.308594 0.136719 -1.328125 -0.941406 -1.546875 c -0.964844 -0.132812 -1.933594 -0.238281 -2.902344 -0.328125 c 0.015625 -0.390625 0.019531 -0.777344 0.011719 -1.167969 c 0 -0.078125 0.058594 -0.203125 0.050781 -0.277344 v -0.019531 c 0 -0.003906 -0.007812 -0.015625 -0.007812 -0.019531 l -0.007813 -0.003906 l -0.007812 -0.011719 v -0.003906 h -0.003906 l -0.007813 -0.007813 l -0.007813 -0.011718 h -0.011718 c -0.382813 -0.066407 -0.78125 -0.09375 -1.171875 -0.101563 h -0.003907 c -0.394531 -0.007813 -0.78125 0.003906 -1.171874 0.019531 h -0.019532 v 0.007813 h -0.007812 v 0.007812 l -0.007813 0.003907 v 0.007812 c -0.003906 0.035156 0.023438 0.105469 0.019531 0.144531 v 0.074219 l -0.003906 0.007812 v 0.003907 h -0.007812 v 0.015625 c 0 0.023437 0 0.054687 0.007812 0.082031 c -0.007812 0.34375 -0.015625 0.6875 -0.019531 1.03125 c -0.347656 -0.03125 -0.699219 -0.0625 -1.050781 -0.097656 c 1.550781 -0.507813 1.21875 -2.125 -0.632813 -2.1875 c -0.121093 0 -0.253906 0 -0.390625 0.011719 c -1.058594 0.078124 -2.121094 0.109374 -3.1875 0.140624 c -1.054687 0.027344 -2.117187 0.042969 -3.171875 0.050782 c -0.269531 0 -0.542969 0.003906 -0.8125 0.007812 v -24.476562 z m 0 0"/>
    </clipPath>
    <clipPath id="g">
        <rect height="152" width="192"/>
    </clipPath>
    <clipPath id="h">
        <rect height="152" width="192"/>
    </clipPath>
    <clipPath id="i">
        <rect height="152" width="192"/>
    </clipPath>
    <path d="m 19.898438 16.089844 h 88 c 4.417968 0 8 3.566406 8 7.96875 v 83.671875 c 0 4.402343 -3.582032 7.96875 -8 7.96875 h -88 c -4.417969 0 -8 -3.566407 -8 -7.96875 v -83.671875 c 0 -4.402344 3.582031 -7.96875 8 -7.96875 z m 0 0" fill="url(#a)"/>
    <path d="m 19.898438 12.089844 h 88 c 4.417968 0 8 3.582031 8 8 v 84 c 0 4.417968 -3.582032 8 -8 8 h -88 c -4.417969 0 -8 -3.582032 -8 -8 v -84 c 0 -4.417969 3.582031 -8 8 -8 z m 0 0" fill="url(#b)" fill-rule="evenodd"/>
    <g clip-path="url(#c)">
        <g clip-path="url(#d)">
            <path d="m 81.046875 78.6875 c -1.808594 0.046875 -3.566406 -1.148438 -3.566406 -2.972656 v -8.914063 h -17.28125 c -2.878907 0 -5.269531 -1.671875 -6.117188 -3.125 c -0.839843 -1.460937 -0.796875 -2.820312 -0.796875 -2.820312 v -11.886719 s -0.042968 -1.359375 0.796875 -2.820312 c 0.847657 -1.453126 3.238281 -3.125 6.117188 -3.125 h 17.28125 v -8.914063 c 0 -1.824219 1.757812 -3.019531 3.566406 -2.972656 c 0.824219 0.011719 1.660156 0.292969 2.335937 0.871093 l 20.742188 17.832032 c 0.09375 0.082031 0.175781 0.160156 0.269531 0.253906 c 1.28125 1.40625 1.917969 3.113281 1.917969 4.820312 c 0 1.703126 -0.636719 3.410157 -1.917969 4.816407 c -0.09375 0.09375 -0.175781 0.171875 -0.269531 0.253906 l -20.742188 17.832031 c -0.675781 0.582032 -1.511718 0.859375 -2.335937 0.871094 z m 3.160156 -8.914062 c 5.078125 -4.761719 9.558594 -8.917969 14.773438 -13.769532 c 0.40625 -0.453125 0.59375 -0.777344 0.605469 -1.089844 c -0.011719 -0.316406 -0.199219 -0.640624 -0.605469 -1.09375 c -5.214844 -4.851562 -9.695313 -9.007812 -14.773438 -13.765624 l 0.1875 5.941406 v 2.972656 h -24.195312 v 11.886719 h 24.195312 v 2.972656 z m 0 0"/>
        </g>
    </g>
    <g clip-path="url(#e)">
        <g clip-path="url(#f)">
            <path d="m 81.003906 76.425781 c -1.8125 0.046875 -3.566406 -1.148437 -3.566406 -2.972656 v -8.914063 h -17.285156 c -2.875 0 -5.265625 -1.671874 -6.117188 -3.125 c -0.835937 -1.460937 -0.796875 -2.820312 -0.796875 -2.820312 v -11.886719 s -0.039062 -1.359375 0.796875 -2.820312 c 0.851563 -1.453125 3.242188 -3.125 6.117188 -3.125 h 17.285156 v -8.914063 c 0 -1.824218 1.753906 -3.019531 3.566406 -2.972656 c 0.820313 0.011719 1.660156 0.289062 2.335938 0.871094 l 20.738281 17.832031 c 0.097656 0.082031 0.175781 0.160156 0.273437 0.253906 c 1.28125 1.40625 1.914063 3.113281 1.914063 4.820313 c 0 1.703125 -0.632813 3.410156 -1.914063 4.816406 c -0.097656 0.09375 -0.175781 0.171875 -0.273437 0.253906 l -20.738281 17.832032 c -0.675782 0.582031 -1.515625 0.859374 -2.335938 0.871093 z m 3.15625 -8.914062 c 5.078125 -4.761719 9.5625 -8.917969 14.773438 -13.769531 c 0.40625 -0.453126 0.59375 -0.777344 0.609375 -1.089844 c -0.015625 -0.316406 -0.203125 -0.640625 -0.609375 -1.09375 c -5.210938 -4.851563 -9.695313 -9.007813 -14.773438 -13.765625 l 0.191406 5.941406 v 2.972656 h -24.199218 v 11.886719 h 24.199218 v 2.972656 z m 0 0" fill="#241f31"/>
        </g>
    </g>
    <path d="m 46.207031 94.679688 c 1.773438 0.046874 3.492188 -1.132813 3.492188 -2.925782 v -8.785156 h 16.929687 c 2.816406 0 5.15625 -1.648438 5.988282 -3.078125 c 0.820312 -1.441406 0.78125 -2.777344 0.78125 -2.777344 v -11.710937 s 0.039062 -1.339844 -0.78125 -2.78125 c -0.832032 -1.429688 -3.171876 -3.078125 -5.988282 -3.078125 h -16.929687 v -8.78125 c 0 -1.796875 -1.71875 -2.976563 -3.492188 -2.929688 c -0.804687 0.011719 -1.625 0.285157 -2.289062 0.859375 l -20.3125 17.566406 c -0.09375 0.082032 -0.171875 0.160157 -0.265625 0.253907 c -1.253906 1.382812 -1.878906 3.0625 -1.878906 4.746093 c 0 1.679688 0.625 3.363282 1.878906 4.746094 c 0.09375 0.089844 0.171875 0.171875 0.265625 0.25 l 20.3125 17.570313 c 0.664062 0.570312 1.484375 0.84375 2.289062 0.855469 z m -3.09375 -8.78125 c -4.972656 -4.691407 -9.363281 -8.785157 -14.46875 -13.566407 c -0.398437 -0.445312 -0.582031 -0.765625 -0.597656 -1.074219 c 0.015625 -0.308593 0.199219 -0.628906 0.597656 -1.078124 c 5.105469 -4.777344 9.496094 -8.875 14.46875 -13.5625 l -0.1875 5.855468 v 2.929688 h 23.703125 v 11.710937 h -23.703125 v 2.925781 z m 0 0"/>
    <g clip-path="url(#g)" transform="matrix(1 0 0 1 -8 -16)">
        <path d="m 88.392776 238.496954 l -0.011718 -4.777344 h -26.363282 v -12.738281 h 26.363282 l 0.015625 -9.554688 l 7.601562 7.304688 c 4.183594 4.019531 7.816406 7.691406 8.078125 8.15625 c 0.445313 0.800781 -0.011719 1.324219 -7.601562 8.617187 l -8.074219 7.765625 z m 0 0" fill-rule="evenodd" stroke="#000000" stroke-width="0.383954" transform="matrix(-1 0 0 1 139.853714 -140.258673)"/>
    </g>
    <path d="m 46.148438 91.652344 c 1.769531 0.042968 3.492187 -1.132813 3.492187 -2.929688 v -8.785156 h 16.925781 c 2.820313 0 5.160156 -1.644531 5.992188 -3.074219 c 0.820312 -1.441406 0.78125 -2.78125 0.78125 -2.78125 v -11.710937 s 0.039062 -1.339844 -0.78125 -2.78125 c -0.832032 -1.429688 -3.171875 -3.074219 -5.992188 -3.074219 h -16.925781 v -8.785156 c 0 -1.796875 -1.722656 -2.972657 -3.492187 -2.929688 c -0.808594 0.011719 -1.628907 0.289063 -2.289063 0.859375 l -20.3125 17.566406 c -0.09375 0.082032 -0.171875 0.160157 -0.265625 0.253907 c -1.257812 1.382812 -1.878906 3.066406 -1.878906 4.746093 c 0 1.679688 0.621094 3.363282 1.878906 4.746094 c 0.09375 0.09375 0.171875 0.171875 0.265625 0.253906 l 20.3125 17.566407 c 0.660156 0.570312 1.480469 0.847656 2.289063 0.859375 z m -3.09375 -8.785156 c -4.972657 -4.691407 -9.367188 -8.785157 -14.46875 -13.566407 c -0.398438 -0.445312 -0.582032 -0.765625 -0.597657 -1.074219 c 0.015625 -0.308593 0.199219 -0.628906 0.597657 -1.074218 c 5.101562 -4.78125 9.496093 -8.875 14.46875 -13.566406 l -0.1875 5.855468 v 2.929688 h 23.699218 v 11.710937 h -23.699218 v 2.929688 z m 0 0" fill="#241f31"/>
    <g clip-path="url(#h)" transform="matrix(1 0 0 1 -8 -16)">
        <path d="m 51.402344 95.207031 l 0.011718 -4.777343 h 26.363282 v -12.738282 h -26.363282 l -0.015624 -9.554687 l -7.605469 7.304687 c -4.179688 4.019532 -7.8125 7.691406 -8.074219 8.160156 c -0.445312 0.800782 0.011719 1.320313 7.597656 8.617188 l 8.078125 7.765625 z m 0 0" fill="#241f31" fill-rule="evenodd"/>
    </g>
    <g clip-path="url(#i)" transform="matrix(1 0 0 1 -8 -16)">
        <path d="m 172.175781 27.550781 v -0.890625 h 4.910157 v -2.371094 h -4.910157 v -1.777343 l -1.417969 1.359375 c -0.777343 0.746094 -1.453124 1.429687 -1.503906 1.519531 c -0.082031 0.148437 0.003906 0.242187 1.417969 1.601563 l 1.5 1.445312 z m 0 0" fill-rule="evenodd"/>
    </g>
</svg>
